<svg width="44" height="22" viewBox="0 0 44 22" fill="none" xmlns="http://www.w3.org/2000/svg">
<rect x="1" y="1" width="42" height="20" rx="9" stroke="#583D72" stroke-width="2"/>
<path d="M15.8985 12.2717H12.0585V16.6667H10.0035V6.16669H12.0585V10.4417H15.8985V6.16669H17.9535V16.6667H15.8985V12.2717ZM22.384 11.1917L21.559 9.54169H21.484L21.724 11.1917V16.6667H19.774V6.09169H21.274L25.249 11.6867L26.044 13.2917H26.119L25.879 11.6867V6.16669H27.829V16.7417H26.329L22.384 11.1917ZM29.6324 6.16669C29.8424 6.13669 30.0774 6.11169 30.3374 6.09169C30.6074 6.07169 30.8824 6.05669 31.1624 6.04669C31.4424 6.03669 31.7124 6.03169 31.9724 6.03169C32.2424 6.02169 32.4824 6.01669 32.6924 6.01669C33.6224 6.01669 34.4174 6.14669 35.0774 6.40669C35.7374 6.66669 36.2724 7.03169 36.6824 7.50169C37.0924 7.97169 37.3924 8.53169 37.5824 9.18169C37.7724 9.83169 37.8674 10.5467 37.8674 11.3267C37.8674 12.0367 37.7774 12.7217 37.5974 13.3817C37.4174 14.0417 37.1174 14.6267 36.6974 15.1367C36.2774 15.6467 35.7224 16.0567 35.0324 16.3667C34.3524 16.6767 33.5074 16.8317 32.4974 16.8317C32.3374 16.8317 32.1224 16.8267 31.8524 16.8167C31.5924 16.8067 31.3174 16.7917 31.0274 16.7717C30.7474 16.7617 30.4774 16.7467 30.2174 16.7267C29.9574 16.7167 29.7624 16.7017 29.6324 16.6817V6.16669ZM32.8574 7.84669C32.6374 7.84669 32.4124 7.85169 32.1824 7.86169C31.9624 7.87169 31.7974 7.88669 31.6874 7.90669V14.9417C31.7274 14.9517 31.7924 14.9617 31.8824 14.9717C31.9824 14.9717 32.0874 14.9767 32.1974 14.9867C32.3074 14.9867 32.4124 14.9917 32.5124 15.0017C32.6124 15.0017 32.6874 15.0017 32.7374 15.0017C33.3174 15.0017 33.7974 14.9017 34.1774 14.7017C34.5674 14.4917 34.8724 14.2167 35.0924 13.8767C35.3224 13.5367 35.4824 13.1467 35.5724 12.7067C35.6624 12.2567 35.7074 11.7967 35.7074 11.3267C35.7074 10.9167 35.6674 10.5067 35.5874 10.0967C35.5074 9.67669 35.3574 9.30169 35.1374 8.97169C34.9274 8.64169 34.6374 8.37169 34.2674 8.16169C33.8974 7.95169 33.4274 7.84669 32.8574 7.84669Z" fill="#583D72"/>
</svg>
