<svg width="78" height="86" viewBox="0 0 58 66" fill="none" xmlns="http://www.w3.org/2000/svg">
<rect x="1.5" y="1.5" width="55" height="63" rx="8.5" stroke="white" stroke-width="3"/>
<path d="M18.795 21.605H14.955V26H12.9V15.5H14.955V19.775H18.795V15.5H20.85V26H18.795V21.605ZM28.6255 25.355C28.3255 25.595 27.9155 25.8 27.3955 25.97C26.8855 26.13 26.3405 26.21 25.7605 26.21C24.5505 26.21 23.6655 25.86 23.1055 25.16C22.5455 24.45 22.2655 23.48 22.2655 22.25C22.2655 20.93 22.5805 19.94 23.2105 19.28C23.8405 18.62 24.7255 18.29 25.8655 18.29C26.2455 18.29 26.6155 18.34 26.9755 18.44C27.3355 18.54 27.6555 18.705 27.9355 18.935C28.2155 19.165 28.4405 19.475 28.6105 19.865C28.7805 20.255 28.8655 20.74 28.8655 21.32C28.8655 21.53 28.8505 21.755 28.8205 21.995C28.8005 22.235 28.7655 22.485 28.7155 22.745H24.2155C24.2455 23.375 24.4055 23.85 24.6955 24.17C24.9955 24.49 25.4755 24.65 26.1355 24.65C26.5455 24.65 26.9105 24.59 27.2305 24.47C27.5605 24.34 27.8105 24.21 27.9805 24.08L28.6255 25.355ZM25.8355 19.85C25.3255 19.85 24.9455 20.005 24.6955 20.315C24.4555 20.615 24.3105 21.02 24.2605 21.53H27.0505C27.0905 20.99 27.0055 20.575 26.7955 20.285C26.5955 19.995 26.2755 19.85 25.8355 19.85ZM32.2527 23.48C32.2527 23.83 32.2977 24.085 32.3877 24.245C32.4777 24.405 32.6227 24.485 32.8227 24.485C32.9427 24.485 33.0577 24.475 33.1677 24.455C33.2877 24.435 33.4327 24.39 33.6027 24.32L33.8127 25.85C33.6527 25.93 33.4077 26.01 33.0777 26.09C32.7477 26.17 32.4077 26.21 32.0577 26.21C31.4877 26.21 31.0527 26.08 30.7527 25.82C30.4527 25.55 30.3027 25.11 30.3027 24.5V15.5H32.2527V23.48ZM36.6619 23.48C36.6619 23.83 36.7069 24.085 36.7969 24.245C36.8869 24.405 37.0319 24.485 37.2319 24.485C37.3519 24.485 37.4669 24.475 37.5769 24.455C37.6969 24.435 37.8419 24.39 38.0119 24.32L38.2219 25.85C38.0619 25.93 37.8169 26.01 37.4869 26.09C37.1569 26.17 36.8169 26.21 36.4669 26.21C35.8969 26.21 35.4619 26.08 35.1619 25.82C34.8619 25.55 34.7119 25.11 34.7119 24.5V15.5H36.6619V23.48ZM38.7011 22.25C38.7011 20.98 39.0111 20.005 39.6311 19.325C40.2511 18.635 41.1211 18.29 42.2411 18.29C42.8411 18.29 43.3611 18.385 43.8011 18.575C44.2411 18.765 44.6061 19.035 44.8961 19.385C45.1861 19.725 45.4011 20.14 45.5411 20.63C45.6911 21.12 45.7661 21.66 45.7661 22.25C45.7661 23.52 45.4561 24.5 44.8361 25.19C44.2261 25.87 43.3611 26.21 42.2411 26.21C41.6411 26.21 41.1211 26.115 40.6811 25.925C40.2411 25.735 39.8711 25.47 39.5711 25.13C39.2811 24.78 39.0611 24.36 38.9111 23.87C38.7711 23.38 38.7011 22.84 38.7011 22.25ZM40.7111 22.25C40.7111 22.58 40.7411 22.885 40.8011 23.165C40.8611 23.445 40.9511 23.69 41.0711 23.9C41.1911 24.11 41.3461 24.275 41.5361 24.395C41.7361 24.505 41.9711 24.56 42.2411 24.56C42.7511 24.56 43.1311 24.375 43.3811 24.005C43.6311 23.635 43.7561 23.05 43.7561 22.25C43.7561 21.56 43.6411 21.005 43.4111 20.585C43.1811 20.155 42.7911 19.94 42.2411 19.94C41.7611 19.94 41.3861 20.12 41.1161 20.48C40.8461 20.84 40.7111 21.43 40.7111 22.25ZM15.51 33.525L14.685 31.875H14.61L14.85 33.525V39H12.9V28.425H14.4L18.375 34.02L19.17 35.625H19.245L19.005 34.02V28.5H20.955V39.075H19.455L15.51 33.525ZM28.7134 38.355C28.4134 38.595 28.0034 38.8 27.4834 38.97C26.9734 39.13 26.4284 39.21 25.8484 39.21C24.6384 39.21 23.7534 38.86 23.1934 38.16C22.6334 37.45 22.3534 36.48 22.3534 35.25C22.3534 33.93 22.6684 32.94 23.2984 32.28C23.9284 31.62 24.8134 31.29 25.9534 31.29C26.3334 31.29 26.7034 31.34 27.0634 31.44C27.4234 31.54 27.7434 31.705 28.0234 31.935C28.3034 32.165 28.5284 32.475 28.6984 32.865C28.8684 33.255 28.9534 33.74 28.9534 34.32C28.9534 34.53 28.9384 34.755 28.9084 34.995C28.8884 35.235 28.8534 35.485 28.8034 35.745H24.3034C24.3334 36.375 24.4934 36.85 24.7834 37.17C25.0834 37.49 25.5634 37.65 26.2234 37.65C26.6334 37.65 26.9984 37.59 27.3184 37.47C27.6484 37.34 27.8984 37.21 28.0684 37.08L28.7134 38.355ZM25.9234 32.85C25.4134 32.85 25.0334 33.005 24.7834 33.315C24.5434 33.615 24.3984 34.02 24.3484 34.53H27.1384C27.1784 33.99 27.0934 33.575 26.8834 33.285C26.6834 32.995 26.3634 32.85 25.9234 32.85ZM35.6873 31.5L37.0523 35.34L37.3223 36.585H37.3823L37.5923 35.325L38.5523 31.5H40.3373L38.0273 39.075H36.5873L35.0723 34.875L34.8773 33.93H34.8023L34.6223 34.89L33.1823 39.075H31.6973L29.2823 31.5H31.3973L32.4923 35.265L32.6723 36.6H32.7473L33.0023 35.25L34.2473 31.5H35.6873ZM12.9 41.5C13.11 41.47 13.345 41.445 13.605 41.425C13.875 41.405 14.15 41.39 14.43 41.38C14.71 41.37 14.98 41.365 15.24 41.365C15.51 41.355 15.75 41.35 15.96 41.35C16.89 41.35 17.685 41.48 18.345 41.74C19.005 42 19.54 42.365 19.95 42.835C20.36 43.305 20.66 43.865 20.85 44.515C21.04 45.165 21.135 45.88 21.135 46.66C21.135 47.37 21.045 48.055 20.865 48.715C20.685 49.375 20.385 49.96 19.965 50.47C19.545 50.98 18.99 51.39 18.3 51.7C17.62 52.01 16.775 52.165 15.765 52.165C15.605 52.165 15.39 52.16 15.12 52.15C14.86 52.14 14.585 52.125 14.295 52.105C14.015 52.095 13.745 52.08 13.485 52.06C13.225 52.05 13.03 52.035 12.9 52.015V41.5ZM16.125 43.18C15.905 43.18 15.68 43.185 15.45 43.195C15.23 43.205 15.065 43.22 14.955 43.24V50.275C14.995 50.285 15.06 50.295 15.15 50.305C15.25 50.305 15.355 50.31 15.465 50.32C15.575 50.32 15.68 50.325 15.78 50.335C15.88 50.335 15.955 50.335 16.005 50.335C16.585 50.335 17.065 50.235 17.445 50.035C17.835 49.825 18.14 49.55 18.36 49.21C18.59 48.87 18.75 48.48 18.84 48.04C18.93 47.59 18.975 47.13 18.975 46.66C18.975 46.25 18.935 45.84 18.855 45.43C18.775 45.01 18.625 44.635 18.405 44.305C18.195 43.975 17.905 43.705 17.535 43.495C17.165 43.285 16.695 43.18 16.125 43.18ZM28.5669 51.355C28.2669 51.595 27.8569 51.8 27.3369 51.97C26.8269 52.13 26.2819 52.21 25.7019 52.21C24.4919 52.21 23.6069 51.86 23.0469 51.16C22.4869 50.45 22.2069 49.48 22.2069 48.25C22.2069 46.93 22.5219 45.94 23.1519 45.28C23.7819 44.62 24.6669 44.29 25.8069 44.29C26.1869 44.29 26.5569 44.34 26.9169 44.44C27.2769 44.54 27.5969 44.705 27.8769 44.935C28.1569 45.165 28.3819 45.475 28.5519 45.865C28.7219 46.255 28.8069 46.74 28.8069 47.32C28.8069 47.53 28.7919 47.755 28.7619 47.995C28.7419 48.235 28.7069 48.485 28.6569 48.745H24.1569C24.1869 49.375 24.3469 49.85 24.6369 50.17C24.9369 50.49 25.4169 50.65 26.0769 50.65C26.4869 50.65 26.8519 50.59 27.1719 50.47C27.5019 50.34 27.7519 50.21 27.9219 50.08L28.5669 51.355ZM25.7769 45.85C25.2669 45.85 24.8869 46.005 24.6369 46.315C24.3969 46.615 24.2519 47.02 24.2019 47.53H26.9919C27.0319 46.99 26.9469 46.575 26.7369 46.285C26.5369 45.995 26.2169 45.85 25.7769 45.85ZM32.574 48.43L32.829 49.585H32.904L33.114 48.4L34.389 44.5H36.489L33.354 52.075H32.169L28.914 44.5H31.179L32.574 48.43Z" fill="white"/>
</svg>
